<mxfile host="app.diagrams.net" agent="Mozilla/5.0 (X11; Ubuntu; Linux x86_64; rv:132.0) Gecko/20100101 Firefox/132.0" version="26.0.9" pages="2">
  <diagram name="Page-1" id="Sv4svwW2fN6rUM3j9v4t">
    <mxGraphModel dx="954" dy="615" grid="1" gridSize="10" guides="1" tooltips="1" connect="1" arrows="1" fold="1" page="1" pageScale="1" pageWidth="850" pageHeight="1100" math="0" shadow="0">
      <root>
        <mxCell id="0" />
        <mxCell id="1" parent="0" />
        <mxCell id="wlhEqluDlheycfx3M3vM-3" value="" style="edgeStyle=orthogonalEdgeStyle;rounded=0;orthogonalLoop=1;jettySize=auto;html=1;" edge="1" parent="1" source="wlhEqluDlheycfx3M3vM-1" target="wlhEqluDlheycfx3M3vM-2">
          <mxGeometry relative="1" as="geometry" />
        </mxCell>
        <mxCell id="wlhEqluDlheycfx3M3vM-1" value="Start" style="ellipse;whiteSpace=wrap;html=1;" vertex="1" parent="1">
          <mxGeometry x="365" y="70" width="120" height="80" as="geometry" />
        </mxCell>
        <mxCell id="wlhEqluDlheycfx3M3vM-5" value="" style="edgeStyle=orthogonalEdgeStyle;rounded=0;orthogonalLoop=1;jettySize=auto;html=1;" edge="1" parent="1" source="wlhEqluDlheycfx3M3vM-2" target="wlhEqluDlheycfx3M3vM-4">
          <mxGeometry relative="1" as="geometry" />
        </mxCell>
        <mxCell id="wlhEqluDlheycfx3M3vM-2" value="read n, i" style="shape=parallelogram;perimeter=parallelogramPerimeter;whiteSpace=wrap;html=1;fixedSize=1;" vertex="1" parent="1">
          <mxGeometry x="365" y="240" width="120" height="60" as="geometry" />
        </mxCell>
        <mxCell id="wlhEqluDlheycfx3M3vM-7" value="" style="edgeStyle=orthogonalEdgeStyle;rounded=0;orthogonalLoop=1;jettySize=auto;html=1;" edge="1" parent="1" source="wlhEqluDlheycfx3M3vM-4" target="wlhEqluDlheycfx3M3vM-6">
          <mxGeometry relative="1" as="geometry" />
        </mxCell>
        <mxCell id="wlhEqluDlheycfx3M3vM-10" value="" style="edgeStyle=orthogonalEdgeStyle;rounded=0;orthogonalLoop=1;jettySize=auto;html=1;" edge="1" parent="1" source="wlhEqluDlheycfx3M3vM-4" target="wlhEqluDlheycfx3M3vM-9">
          <mxGeometry relative="1" as="geometry" />
        </mxCell>
        <mxCell id="wlhEqluDlheycfx3M3vM-4" value="n &amp;gt;= 0" style="rhombus;whiteSpace=wrap;html=1;" vertex="1" parent="1">
          <mxGeometry x="385" y="370" width="80" height="80" as="geometry" />
        </mxCell>
        <mxCell id="wlhEqluDlheycfx3M3vM-6" value="Write &quot;Errore. Devi inserire un numero positivo&quot;" style="shape=parallelogram;perimeter=parallelogramPerimeter;whiteSpace=wrap;html=1;fixedSize=1;" vertex="1" parent="1">
          <mxGeometry x="525" y="380" width="195" height="60" as="geometry" />
        </mxCell>
        <mxCell id="wlhEqluDlheycfx3M3vM-8" value="" style="endArrow=classic;html=1;rounded=0;exitX=0.5;exitY=1;exitDx=0;exitDy=0;entryX=0.5;entryY=0;entryDx=0;entryDy=0;" edge="1" parent="1" source="wlhEqluDlheycfx3M3vM-6" target="wlhEqluDlheycfx3M3vM-19">
          <mxGeometry width="50" height="50" relative="1" as="geometry">
            <mxPoint x="400" y="420" as="sourcePoint" />
            <mxPoint x="450" y="370" as="targetPoint" />
            <Array as="points">
              <mxPoint x="623" y="460" />
              <mxPoint x="720" y="460" />
            </Array>
          </mxGeometry>
        </mxCell>
        <mxCell id="wlhEqluDlheycfx3M3vM-13" value="" style="edgeStyle=orthogonalEdgeStyle;rounded=0;orthogonalLoop=1;jettySize=auto;html=1;" edge="1" parent="1" source="wlhEqluDlheycfx3M3vM-14" target="wlhEqluDlheycfx3M3vM-12">
          <mxGeometry relative="1" as="geometry" />
        </mxCell>
        <mxCell id="wlhEqluDlheycfx3M3vM-18" value="" style="edgeStyle=orthogonalEdgeStyle;rounded=0;orthogonalLoop=1;jettySize=auto;html=1;" edge="1" parent="1" source="wlhEqluDlheycfx3M3vM-9" target="wlhEqluDlheycfx3M3vM-17">
          <mxGeometry relative="1" as="geometry" />
        </mxCell>
        <mxCell id="wlhEqluDlheycfx3M3vM-9" value="i &amp;lt;= n" style="rhombus;whiteSpace=wrap;html=1;" vertex="1" parent="1">
          <mxGeometry x="385" y="530" width="80" height="80" as="geometry" />
        </mxCell>
        <mxCell id="wlhEqluDlheycfx3M3vM-12" value="somma = somma + i**2" style="whiteSpace=wrap;html=1;" vertex="1" parent="1">
          <mxGeometry x="365" y="740" width="120" height="60" as="geometry" />
        </mxCell>
        <mxCell id="wlhEqluDlheycfx3M3vM-15" value="" style="edgeStyle=orthogonalEdgeStyle;rounded=0;orthogonalLoop=1;jettySize=auto;html=1;" edge="1" parent="1" source="wlhEqluDlheycfx3M3vM-9" target="wlhEqluDlheycfx3M3vM-14">
          <mxGeometry relative="1" as="geometry">
            <mxPoint x="425" y="610" as="sourcePoint" />
            <mxPoint x="425" y="750" as="targetPoint" />
          </mxGeometry>
        </mxCell>
        <mxCell id="wlhEqluDlheycfx3M3vM-14" value="i = i + 1" style="rounded=0;whiteSpace=wrap;html=1;" vertex="1" parent="1">
          <mxGeometry x="365" y="640" width="120" height="60" as="geometry" />
        </mxCell>
        <mxCell id="wlhEqluDlheycfx3M3vM-16" value="" style="endArrow=classic;html=1;rounded=0;exitX=0.5;exitY=1;exitDx=0;exitDy=0;entryX=0;entryY=0.5;entryDx=0;entryDy=0;" edge="1" parent="1" source="wlhEqluDlheycfx3M3vM-12" target="wlhEqluDlheycfx3M3vM-9">
          <mxGeometry width="50" height="50" relative="1" as="geometry">
            <mxPoint x="430" y="690" as="sourcePoint" />
            <mxPoint x="480" y="640" as="targetPoint" />
            <Array as="points">
              <mxPoint x="425" y="820" />
              <mxPoint x="240" y="820" />
              <mxPoint x="240" y="570" />
            </Array>
          </mxGeometry>
        </mxCell>
        <mxCell id="wlhEqluDlheycfx3M3vM-17" value="Write somma" style="shape=parallelogram;perimeter=parallelogramPerimeter;whiteSpace=wrap;html=1;fixedSize=1;" vertex="1" parent="1">
          <mxGeometry x="525" y="540" width="120" height="60" as="geometry" />
        </mxCell>
        <mxCell id="wlhEqluDlheycfx3M3vM-19" value="" style="ellipse;whiteSpace=wrap;html=1;aspect=fixed;" vertex="1" parent="1">
          <mxGeometry x="710" y="560" width="20" height="20" as="geometry" />
        </mxCell>
        <mxCell id="wlhEqluDlheycfx3M3vM-20" value="" style="endArrow=classic;html=1;rounded=0;exitX=1;exitY=0.5;exitDx=0;exitDy=0;entryX=0;entryY=0.5;entryDx=0;entryDy=0;" edge="1" parent="1" source="wlhEqluDlheycfx3M3vM-17" target="wlhEqluDlheycfx3M3vM-19">
          <mxGeometry width="50" height="50" relative="1" as="geometry">
            <mxPoint x="400" y="690" as="sourcePoint" />
            <mxPoint x="450" y="640" as="targetPoint" />
          </mxGeometry>
        </mxCell>
        <mxCell id="wlhEqluDlheycfx3M3vM-22" value="end" style="ellipse;whiteSpace=wrap;html=1;" vertex="1" parent="1">
          <mxGeometry x="660" y="680" width="120" height="80" as="geometry" />
        </mxCell>
        <mxCell id="wlhEqluDlheycfx3M3vM-23" value="" style="endArrow=classic;html=1;rounded=0;exitX=0.5;exitY=1;exitDx=0;exitDy=0;entryX=0.5;entryY=0;entryDx=0;entryDy=0;" edge="1" parent="1" source="wlhEqluDlheycfx3M3vM-19" target="wlhEqluDlheycfx3M3vM-22">
          <mxGeometry width="50" height="50" relative="1" as="geometry">
            <mxPoint x="400" y="690" as="sourcePoint" />
            <mxPoint x="450" y="640" as="targetPoint" />
          </mxGeometry>
        </mxCell>
      </root>
    </mxGraphModel>
  </diagram>
  <diagram id="tEQhcCJMUXIy93X2UrlY" name="Page-2">
    <mxGraphModel dx="1364" dy="795" grid="1" gridSize="10" guides="1" tooltips="1" connect="1" arrows="1" fold="1" page="1" pageScale="1" pageWidth="850" pageHeight="1100" math="0" shadow="0">
      <root>
        <mxCell id="0" />
        <mxCell id="1" parent="0" />
        <mxCell id="HmAsYhPlDnXO1NmBR1t9-4" value="" style="edgeStyle=orthogonalEdgeStyle;rounded=0;orthogonalLoop=1;jettySize=auto;html=1;" edge="1" parent="1" source="HmAsYhPlDnXO1NmBR1t9-1" target="HmAsYhPlDnXO1NmBR1t9-3">
          <mxGeometry relative="1" as="geometry" />
        </mxCell>
        <mxCell id="HmAsYhPlDnXO1NmBR1t9-1" value="start" style="ellipse;whiteSpace=wrap;html=1;" vertex="1" parent="1">
          <mxGeometry x="365" y="50" width="120" height="80" as="geometry" />
        </mxCell>
        <mxCell id="HmAsYhPlDnXO1NmBR1t9-6" value="" style="edgeStyle=orthogonalEdgeStyle;rounded=0;orthogonalLoop=1;jettySize=auto;html=1;" edge="1" parent="1" source="HmAsYhPlDnXO1NmBR1t9-3" target="HmAsYhPlDnXO1NmBR1t9-5">
          <mxGeometry relative="1" as="geometry" />
        </mxCell>
        <mxCell id="HmAsYhPlDnXO1NmBR1t9-3" value="read x" style="shape=parallelogram;perimeter=parallelogramPerimeter;whiteSpace=wrap;html=1;fixedSize=1;" vertex="1" parent="1">
          <mxGeometry x="365" y="160" width="120" height="60" as="geometry" />
        </mxCell>
        <mxCell id="HmAsYhPlDnXO1NmBR1t9-8" value="" style="edgeStyle=orthogonalEdgeStyle;rounded=0;orthogonalLoop=1;jettySize=auto;html=1;" edge="1" parent="1" source="HmAsYhPlDnXO1NmBR1t9-5" target="HmAsYhPlDnXO1NmBR1t9-7">
          <mxGeometry relative="1" as="geometry" />
        </mxCell>
        <mxCell id="HmAsYhPlDnXO1NmBR1t9-35" value="False" style="edgeLabel;html=1;align=center;verticalAlign=middle;resizable=0;points=[];" vertex="1" connectable="0" parent="HmAsYhPlDnXO1NmBR1t9-8">
          <mxGeometry x="-0.36" y="-3" relative="1" as="geometry">
            <mxPoint as="offset" />
          </mxGeometry>
        </mxCell>
        <mxCell id="HmAsYhPlDnXO1NmBR1t9-10" value="" style="edgeStyle=orthogonalEdgeStyle;rounded=0;orthogonalLoop=1;jettySize=auto;html=1;" edge="1" parent="1" source="HmAsYhPlDnXO1NmBR1t9-11" target="HmAsYhPlDnXO1NmBR1t9-9">
          <mxGeometry relative="1" as="geometry" />
        </mxCell>
        <mxCell id="HmAsYhPlDnXO1NmBR1t9-5" value="x &amp;gt;= 0" style="rhombus;whiteSpace=wrap;html=1;" vertex="1" parent="1">
          <mxGeometry x="385" y="250" width="80" height="80" as="geometry" />
        </mxCell>
        <mxCell id="HmAsYhPlDnXO1NmBR1t9-32" style="edgeStyle=orthogonalEdgeStyle;rounded=0;orthogonalLoop=1;jettySize=auto;html=1;exitX=0.5;exitY=1;exitDx=0;exitDy=0;entryX=0.5;entryY=0;entryDx=0;entryDy=0;" edge="1" parent="1" source="HmAsYhPlDnXO1NmBR1t9-7" target="HmAsYhPlDnXO1NmBR1t9-31">
          <mxGeometry relative="1" as="geometry" />
        </mxCell>
        <mxCell id="HmAsYhPlDnXO1NmBR1t9-7" value="Write &quot;Errore. Inserisci numero positivo&quot;" style="shape=parallelogram;perimeter=parallelogramPerimeter;whiteSpace=wrap;html=1;fixedSize=1;" vertex="1" parent="1">
          <mxGeometry x="530" y="260" width="120" height="60" as="geometry" />
        </mxCell>
        <mxCell id="HmAsYhPlDnXO1NmBR1t9-14" value="" style="edgeStyle=orthogonalEdgeStyle;rounded=0;orthogonalLoop=1;jettySize=auto;html=1;" edge="1" parent="1" source="HmAsYhPlDnXO1NmBR1t9-9" target="HmAsYhPlDnXO1NmBR1t9-13">
          <mxGeometry relative="1" as="geometry" />
        </mxCell>
        <mxCell id="HmAsYhPlDnXO1NmBR1t9-38" value="True" style="edgeLabel;html=1;align=center;verticalAlign=middle;resizable=0;points=[];" vertex="1" connectable="0" parent="HmAsYhPlDnXO1NmBR1t9-14">
          <mxGeometry x="-0.1" y="-1" relative="1" as="geometry">
            <mxPoint as="offset" />
          </mxGeometry>
        </mxCell>
        <mxCell id="HmAsYhPlDnXO1NmBR1t9-33" style="edgeStyle=orthogonalEdgeStyle;rounded=0;orthogonalLoop=1;jettySize=auto;html=1;exitX=1;exitY=0.5;exitDx=0;exitDy=0;entryX=0;entryY=0.5;entryDx=0;entryDy=0;" edge="1" parent="1" source="HmAsYhPlDnXO1NmBR1t9-9" target="HmAsYhPlDnXO1NmBR1t9-31">
          <mxGeometry relative="1" as="geometry" />
        </mxCell>
        <mxCell id="HmAsYhPlDnXO1NmBR1t9-37" value="False" style="edgeLabel;html=1;align=center;verticalAlign=middle;resizable=0;points=[];" vertex="1" connectable="0" parent="HmAsYhPlDnXO1NmBR1t9-33">
          <mxGeometry x="-0.5091" y="-3" relative="1" as="geometry">
            <mxPoint as="offset" />
          </mxGeometry>
        </mxCell>
        <mxCell id="HmAsYhPlDnXO1NmBR1t9-9" value="i &amp;lt; 10" style="rhombus;whiteSpace=wrap;html=1;" vertex="1" parent="1">
          <mxGeometry x="385" y="580" width="80" height="80" as="geometry" />
        </mxCell>
        <mxCell id="HmAsYhPlDnXO1NmBR1t9-12" value="" style="edgeStyle=orthogonalEdgeStyle;rounded=0;orthogonalLoop=1;jettySize=auto;html=1;" edge="1" parent="1" source="HmAsYhPlDnXO1NmBR1t9-15" target="HmAsYhPlDnXO1NmBR1t9-11">
          <mxGeometry relative="1" as="geometry">
            <mxPoint x="425" y="460" as="sourcePoint" />
            <mxPoint x="425" y="580" as="targetPoint" />
          </mxGeometry>
        </mxCell>
        <mxCell id="HmAsYhPlDnXO1NmBR1t9-11" value="i = 1" style="rounded=0;whiteSpace=wrap;html=1;" vertex="1" parent="1">
          <mxGeometry x="365" y="490" width="120" height="60" as="geometry" />
        </mxCell>
        <mxCell id="HmAsYhPlDnXO1NmBR1t9-18" value="" style="edgeStyle=orthogonalEdgeStyle;rounded=0;orthogonalLoop=1;jettySize=auto;html=1;" edge="1" parent="1" source="HmAsYhPlDnXO1NmBR1t9-13" target="HmAsYhPlDnXO1NmBR1t9-17">
          <mxGeometry relative="1" as="geometry" />
        </mxCell>
        <mxCell id="HmAsYhPlDnXO1NmBR1t9-40" value="True" style="edgeLabel;html=1;align=center;verticalAlign=middle;resizable=0;points=[];" vertex="1" connectable="0" parent="HmAsYhPlDnXO1NmBR1t9-18">
          <mxGeometry x="-0.1" y="-3" relative="1" as="geometry">
            <mxPoint as="offset" />
          </mxGeometry>
        </mxCell>
        <mxCell id="HmAsYhPlDnXO1NmBR1t9-20" value="" style="edgeStyle=orthogonalEdgeStyle;rounded=0;orthogonalLoop=1;jettySize=auto;html=1;" edge="1" parent="1" source="HmAsYhPlDnXO1NmBR1t9-13" target="HmAsYhPlDnXO1NmBR1t9-19">
          <mxGeometry relative="1" as="geometry" />
        </mxCell>
        <mxCell id="HmAsYhPlDnXO1NmBR1t9-39" value="False" style="edgeLabel;html=1;align=center;verticalAlign=middle;resizable=0;points=[];" vertex="1" connectable="0" parent="HmAsYhPlDnXO1NmBR1t9-20">
          <mxGeometry x="0.175" y="-2" relative="1" as="geometry">
            <mxPoint as="offset" />
          </mxGeometry>
        </mxCell>
        <mxCell id="HmAsYhPlDnXO1NmBR1t9-13" value="x % 2 == 0" style="rhombus;whiteSpace=wrap;html=1;" vertex="1" parent="1">
          <mxGeometry x="385" y="700" width="80" height="80" as="geometry" />
        </mxCell>
        <mxCell id="HmAsYhPlDnXO1NmBR1t9-16" value="" style="edgeStyle=orthogonalEdgeStyle;rounded=0;orthogonalLoop=1;jettySize=auto;html=1;" edge="1" parent="1" source="HmAsYhPlDnXO1NmBR1t9-5" target="HmAsYhPlDnXO1NmBR1t9-15">
          <mxGeometry relative="1" as="geometry">
            <mxPoint x="425" y="410" as="sourcePoint" />
            <mxPoint x="425" y="490" as="targetPoint" />
          </mxGeometry>
        </mxCell>
        <mxCell id="HmAsYhPlDnXO1NmBR1t9-36" value="True" style="edgeLabel;html=1;align=center;verticalAlign=middle;resizable=0;points=[];" vertex="1" connectable="0" parent="HmAsYhPlDnXO1NmBR1t9-16">
          <mxGeometry x="-0.2" y="1" relative="1" as="geometry">
            <mxPoint as="offset" />
          </mxGeometry>
        </mxCell>
        <mxCell id="HmAsYhPlDnXO1NmBR1t9-15" value="read n" style="shape=parallelogram;perimeter=parallelogramPerimeter;whiteSpace=wrap;html=1;fixedSize=1;" vertex="1" parent="1">
          <mxGeometry x="365" y="400" width="120" height="60" as="geometry" />
        </mxCell>
        <mxCell id="HmAsYhPlDnXO1NmBR1t9-24" value="" style="edgeStyle=orthogonalEdgeStyle;rounded=0;orthogonalLoop=1;jettySize=auto;html=1;" edge="1" parent="1" source="HmAsYhPlDnXO1NmBR1t9-17" target="HmAsYhPlDnXO1NmBR1t9-23">
          <mxGeometry relative="1" as="geometry" />
        </mxCell>
        <mxCell id="HmAsYhPlDnXO1NmBR1t9-42" value="True" style="edgeLabel;html=1;align=center;verticalAlign=middle;resizable=0;points=[];" vertex="1" connectable="0" parent="HmAsYhPlDnXO1NmBR1t9-24">
          <mxGeometry x="-0.3333" relative="1" as="geometry">
            <mxPoint as="offset" />
          </mxGeometry>
        </mxCell>
        <mxCell id="HmAsYhPlDnXO1NmBR1t9-17" value="n &amp;gt; x/2" style="rhombus;whiteSpace=wrap;html=1;" vertex="1" parent="1">
          <mxGeometry x="545" y="700" width="80" height="80" as="geometry" />
        </mxCell>
        <mxCell id="HmAsYhPlDnXO1NmBR1t9-22" value="" style="edgeStyle=orthogonalEdgeStyle;rounded=0;orthogonalLoop=1;jettySize=auto;html=1;" edge="1" parent="1" source="HmAsYhPlDnXO1NmBR1t9-19" target="HmAsYhPlDnXO1NmBR1t9-21">
          <mxGeometry relative="1" as="geometry" />
        </mxCell>
        <mxCell id="HmAsYhPlDnXO1NmBR1t9-41" value="True" style="edgeLabel;html=1;align=center;verticalAlign=middle;resizable=0;points=[];" vertex="1" connectable="0" parent="HmAsYhPlDnXO1NmBR1t9-22">
          <mxGeometry x="-0.2667" y="-4" relative="1" as="geometry">
            <mxPoint as="offset" />
          </mxGeometry>
        </mxCell>
        <mxCell id="HmAsYhPlDnXO1NmBR1t9-19" value="n &amp;lt; x" style="rhombus;whiteSpace=wrap;html=1;" vertex="1" parent="1">
          <mxGeometry x="225" y="700" width="80" height="80" as="geometry" />
        </mxCell>
        <mxCell id="HmAsYhPlDnXO1NmBR1t9-29" style="edgeStyle=orthogonalEdgeStyle;rounded=0;orthogonalLoop=1;jettySize=auto;html=1;exitX=0.5;exitY=1;exitDx=0;exitDy=0;entryX=0.5;entryY=0;entryDx=0;entryDy=0;" edge="1" parent="1" source="HmAsYhPlDnXO1NmBR1t9-21" target="HmAsYhPlDnXO1NmBR1t9-27">
          <mxGeometry relative="1" as="geometry" />
        </mxCell>
        <mxCell id="HmAsYhPlDnXO1NmBR1t9-21" value="dispari = dispari + n" style="whiteSpace=wrap;html=1;" vertex="1" parent="1">
          <mxGeometry x="205" y="870" width="120" height="60" as="geometry" />
        </mxCell>
        <mxCell id="HmAsYhPlDnXO1NmBR1t9-26" style="edgeStyle=orthogonalEdgeStyle;rounded=0;orthogonalLoop=1;jettySize=auto;html=1;exitX=0.5;exitY=1;exitDx=0;exitDy=0;entryX=1;entryY=0.5;entryDx=0;entryDy=0;" edge="1" parent="1" source="HmAsYhPlDnXO1NmBR1t9-23" target="HmAsYhPlDnXO1NmBR1t9-27">
          <mxGeometry relative="1" as="geometry">
            <mxPoint x="290" y="980" as="targetPoint" />
          </mxGeometry>
        </mxCell>
        <mxCell id="HmAsYhPlDnXO1NmBR1t9-23" value="pari = pari + n" style="whiteSpace=wrap;html=1;" vertex="1" parent="1">
          <mxGeometry x="525" y="870" width="120" height="60" as="geometry" />
        </mxCell>
        <mxCell id="HmAsYhPlDnXO1NmBR1t9-25" value="" style="endArrow=classic;html=1;rounded=0;exitX=0;exitY=0.5;exitDx=0;exitDy=0;entryX=0;entryY=0.5;entryDx=0;entryDy=0;" edge="1" parent="1" source="HmAsYhPlDnXO1NmBR1t9-27" target="HmAsYhPlDnXO1NmBR1t9-15">
          <mxGeometry width="50" height="50" relative="1" as="geometry">
            <mxPoint x="640" y="750" as="sourcePoint" />
            <mxPoint x="690" y="700" as="targetPoint" />
            <Array as="points">
              <mxPoint x="160" y="955" />
              <mxPoint x="160" y="430" />
            </Array>
          </mxGeometry>
        </mxCell>
        <mxCell id="HmAsYhPlDnXO1NmBR1t9-27" value="" style="ellipse;whiteSpace=wrap;html=1;aspect=fixed;" vertex="1" parent="1">
          <mxGeometry x="250" y="940" width="30" height="30" as="geometry" />
        </mxCell>
        <mxCell id="HmAsYhPlDnXO1NmBR1t9-30" value="end" style="ellipse;whiteSpace=wrap;html=1;" vertex="1" parent="1">
          <mxGeometry x="670" y="580" width="120" height="80" as="geometry" />
        </mxCell>
        <mxCell id="HmAsYhPlDnXO1NmBR1t9-34" style="edgeStyle=orthogonalEdgeStyle;rounded=0;orthogonalLoop=1;jettySize=auto;html=1;exitX=1;exitY=0.5;exitDx=0;exitDy=0;entryX=0;entryY=0.5;entryDx=0;entryDy=0;" edge="1" parent="1" source="HmAsYhPlDnXO1NmBR1t9-31" target="HmAsYhPlDnXO1NmBR1t9-30">
          <mxGeometry relative="1" as="geometry" />
        </mxCell>
        <mxCell id="HmAsYhPlDnXO1NmBR1t9-31" value="" style="ellipse;whiteSpace=wrap;html=1;aspect=fixed;" vertex="1" parent="1">
          <mxGeometry x="575" y="605" width="30" height="30" as="geometry" />
        </mxCell>
      </root>
    </mxGraphModel>
  </diagram>
</mxfile>
